<?xml version="1.0" encoding="UTF-8"?>
		<svg xmlns="http://www.w3.org/2000/svg"  preserveAspectRatio="none" width="40" height="20">
			<style>
				* {
					vector-effect: non-scaling-stroke;
				}

				.sparkline {
					stroke-width: 2;
					fill: transparent;
					stroke: black;
				}

			

			</style>
				<path class="sparkline-fill" style="fill:#efc9c9;" d="M 0 2L 3.076923076923077 2.345861254527872L 6.153846153846154 2.4832326149063597L 9.230769230769232 2.091274442805016L 12.307692307692308 2.1238869393638424L 15.384615384615385 2.5311023095083236L 18.461538461538463 2.9110046548493713L 21.53846153846154 2.980953910154671L 24.615384615384617 3.2714960346948807L 27.692307692307693 3.471419078150703L 30.76923076923077 4.3048883121659145L 33.84615384615385 4.430896926164934L 36.92307692307693 4.666600833634776L 40 4.82958787910855L 40 20 L 0 20"></path>
				<path class="sparkline" style="stroke:#cf1111;" d="M 0 2L 3.076923076923077 2.345861254527872L 6.153846153846154 2.4832326149063597L 9.230769230769232 2.091274442805016L 12.307692307692308 2.1238869393638424L 15.384615384615385 2.5311023095083236L 18.461538461538463 2.9110046548493713L 21.53846153846154 2.980953910154671L 24.615384615384617 3.2714960346948807L 27.692307692307693 3.471419078150703L 30.76923076923077 4.3048883121659145L 33.84615384615385 4.430896926164934L 36.92307692307693 4.666600833634776L 40 4.82958787910855"></path>
		</svg>