<?xml version="1.0" encoding="UTF-8"?>
		<svg xmlns="http://www.w3.org/2000/svg"  preserveAspectRatio="none" width="40" height="20">
			<style>
				* {
					vector-effect: non-scaling-stroke;
				}

				.sparkline {
					stroke-width: 2;
					fill: transparent;
					stroke: black;
				}

			

			</style>
				<path class="sparkline-fill" style="fill:#e1e1e1;" d="M 0 2L 3.076923076923077 2.0811233929503317L 6.153846153846154 2.1824564732672336L 9.230769230769232 2.633331751980645L 12.307692307692308 2.4895867925423403L 15.384615384615385 2.6287774562360653L 18.461538461538463 3.0745291522368206L 21.53846153846154 3.126903553299492L 24.615384615384617 3.34522510555529L 27.692307692307693 3.276626025902555L 30.76923076923077 3.6833815645903485L 33.84615384615385 3.9270363869253764L 36.92307692307693 4.019260875753119L 40 4.055410598225722L 40 20 L 0 20"></path>
				<path class="sparkline" style="stroke:#555555;" d="M 0 2L 3.076923076923077 2.0811233929503317L 6.153846153846154 2.1824564732672336L 9.230769230769232 2.633331751980645L 12.307692307692308 2.4895867925423403L 15.384615384615385 2.6287774562360653L 18.461538461538463 3.0745291522368206L 21.53846153846154 3.126903553299492L 24.615384615384617 3.34522510555529L 27.692307692307693 3.276626025902555L 30.76923076923077 3.6833815645903485L 33.84615384615385 3.9270363869253764L 36.92307692307693 4.019260875753119L 40 4.055410598225722"></path>
		</svg>