<?xml version="1.0" encoding="UTF-8"?>
		<svg xmlns="http://www.w3.org/2000/svg"  preserveAspectRatio="none" width="40" height="20">
			<style>
				* {
					vector-effect: non-scaling-stroke;
				}

				.sparkline {
					stroke-width: 2;
					fill: transparent;
					stroke: black;
				}

			

			</style>
				<path class="sparkline-fill" style="fill:#efc9c9;" d="M 0 2L 3.076923076923077 2.2643252957915223L 6.153846153846154 2.4130166991163726L 9.230769230769232 2.510049423393742L 12.307692307692308 2.5035794518496317L 15.384615384615385 3.799258649093904L 18.461538461538463 4.182334880934553L 21.53846153846154 4.565293170585592L 24.615384615384617 5.020954395686687L 27.692307692307693 5.484382956417553L 30.76923076923077 5.763939643552495L 33.84615384615385 5.860416354650292L 36.92307692307693 6.085787030103342L 40 6.507969522240529L 40 20 L 0 20"></path>
				<path class="sparkline" style="stroke:#cf1111;" d="M 0 2L 3.076923076923077 2.2643252957915223L 6.153846153846154 2.4130166991163726L 9.230769230769232 2.510049423393742L 12.307692307692308 2.5035794518496317L 15.384615384615385 3.799258649093904L 18.461538461538463 4.182334880934553L 21.53846153846154 4.565293170585592L 24.615384615384617 5.020954395686687L 27.692307692307693 5.484382956417553L 30.76923076923077 5.763939643552495L 33.84615384615385 5.860416354650292L 36.92307692307693 6.085787030103342L 40 6.507969522240529"></path>
		</svg>