<?xml version="1.0" encoding="UTF-8"?>
		<svg xmlns="http://www.w3.org/2000/svg"  preserveAspectRatio="none" width="40" height="20">
			<style>
				* {
					vector-effect: non-scaling-stroke;
				}

				.sparkline {
					stroke-width: 2;
					fill: transparent;
					stroke: black;
				}

			

			</style>
				<path class="sparkline-fill" style="fill:#e1e1e1;" d="M 0 3.2466465918423246L 3.076923076923077 3.0175198467013438L 6.153846153846154 2.817957842868875L 9.230769230769232 2.6541199014508656L 12.307692307692308 2.6491924445661112L 15.384615384615385 2L 18.461538461538463 2.3584724883657273L 21.53846153846154 2.104708458800989L 24.615384615384617 2.4286887489734497L 27.692307692307693 2.219271831371479L 30.76923076923077 2.459485354503151L 33.84615384615385 2.459485354503151L 36.92307692307693 2.300574869969889L 40 2.5309334793320595L 40 20 L 0 20"></path>
				<path class="sparkline" style="stroke:#555555;" d="M 0 3.2466465918423246L 3.076923076923077 3.0175198467013438L 6.153846153846154 2.817957842868875L 9.230769230769232 2.6541199014508656L 12.307692307692308 2.6491924445661112L 15.384615384615385 2L 18.461538461538463 2.3584724883657273L 21.53846153846154 2.104708458800989L 24.615384615384617 2.4286887489734497L 27.692307692307693 2.219271831371479L 30.76923076923077 2.459485354503151L 33.84615384615385 2.459485354503151L 36.92307692307693 2.300574869969889L 40 2.5309334793320595"></path>
		</svg>